<?xml version="1.0" encoding="UTF-8"?>
<svg id="Layer_1" data-name="Layer 1" xmlns="http://www.w3.org/2000/svg" viewBox="0 0 1920 1080">
  <defs>
    <style>
      .cls-1 {
        font-family: MyriadPro-Regular, 'Myriad Pro';
        font-size: 40.02px;
      }

      .cls-1, .cls-2, .cls-3 {
        fill: #fff;
      }

      .cls-4 {
        fill: #00c977;
      }

      .cls-5 {
        fill: #006239;
      }

      .cls-3 {
        font-family: MyriadArabic-Bold, 'Myriad Arabic';
        font-size: 258.97px;
        font-weight: 700;
      }

      .cls-6 {
        fill: none;
        stroke: #00c977;
        stroke-miterlimit: 10;
        stroke-width: 5px;
      }

      .cls-7 {
        letter-spacing: 0em;
      }

      .cls-8 {
        letter-spacing: 0em;
      }

      .cls-9 {
        letter-spacing: 0em;
      }

      .cls-10 {
        letter-spacing: 0em;
      }
    </style>
  </defs>
  <rect class="cls-4" width="1920" height="1080"/>
  <g>
    <path class="cls-2" d="m486.75,288.2h-21.3v-14.98h60.74v14.98h-21.53v63.9h-17.91v-63.9Z"/>
    <path class="cls-2" d="m531.93,278.96c0-5.15,3.74-9.01,9.36-9.01s9.36,3.86,9.36,9.01c.12,4.92-3.63,8.89-9.6,8.89-5.62,0-9.13-3.98-9.13-8.89Zm.35,15.92h17.91v57.23h-17.91v-57.23Z"/>
    <path class="cls-2" d="m564.35,313.13c0-7.14-.23-13.11-.47-18.26h15.57l.82,7.96h.35c2.34-3.74,8.08-9.25,17.67-9.25,11.7,0,20.48,7.72,20.48,24.58v33.94h-17.79v-31.72c0-7.37-2.69-12.41-9.01-12.41-4.91,0-7.84,3.39-9.01,6.67-.47,1.05-.7,2.81-.7,4.45v33h-17.91v-38.97Z"/>
    <path class="cls-2" d="m645.1,352.69c.7-.82,1.05-1.76,1.05-2.46s-.12-1.64-.82-2.93l-20.95-52.43h19.78l8.54,28.09c.94,3.39,1.99,7.61,2.81,10.65h.47c.7-3.04,1.64-7.37,2.46-10.65l7.02-28.09h19.08l-13.34,37.68c-8.19,22.7-13.69,31.83-20.13,37.57-6.09,5.38-12.76,7.26-17.2,7.84l-3.74-14.98c2.22-.58,4.91-1.52,7.72-3.16,2.69-1.4,5.73-4.21,7.26-7.14Z"/>
    <path class="cls-2" d="m692.61,273.22h17.91v30.31h29.37v-30.31h17.79v78.88h-17.79v-33h-29.37v33h-17.91v-78.88Z"/>
    <path class="cls-2" d="m799.46,293.59c17.2,0,29.26,11.47,29.26,29.84,0,21.42-16.38,29.96-30.66,29.96-16.38,0-29.14-11-29.14-29.84s13.69-29.96,30.55-29.96Zm-.59,47.05c7.72,0,11.47-7.61,11.47-16.97,0-8.08-2.81-17.44-11.47-17.44s-11.59,9.36-11.59,17.32c0,9.13,3.74,17.09,11.59,17.09Z"/>
    <path class="cls-2" d="m839.37,294.88h17.91v30.66c0,8.31,2.46,13.46,8.89,13.46,4.8,0,7.72-3.16,8.89-6.2.35-1.05.59-2.34.59-3.86v-34.06h17.91v38.97c0,7.37.23,13.46.47,18.26h-15.57l-.82-8.08h-.23c-2.57,3.98-7.84,9.36-18.02,9.36-11.35,0-20.01-6.79-20.01-24.93v-33.59Z"/>
    <path class="cls-2" d="m907.72,336.54c3.28,1.99,10.07,4.33,15.21,4.33s7.72-1.76,7.72-4.8-1.87-4.33-8.31-6.55c-11.94-3.98-16.38-10.42-16.38-17.2,0-10.77,9.01-18.72,23.29-18.72,6.67,0,12.64,1.52,16.15,3.28l-3.16,12.29c-2.57-1.29-7.49-3.28-12.4-3.28-4.33,0-6.79,1.87-6.79,4.68s2.22,4.1,9.25,6.55c10.88,3.74,15.45,9.25,15.57,17.67,0,10.65-8.43,18.61-24.81,18.61-7.49,0-14.28-1.76-18.49-4.1l3.16-12.76Z"/>
    <path class="cls-2" d="m984.37,293.59c18.49,0,25.63,14.39,25.63,28.56,0,3.16-.47,5.73-.7,7.02h-36.86c.59,7.37,7.84,10.88,16.15,10.88,6.09,0,10.88-.82,15.8-2.46l2.34,12.17c-5.85,2.34-13.11,3.63-20.71,3.63-19.43,0-30.55-11.35-30.55-29.26,0-14.51,9.01-30.54,28.91-30.54Zm9.01,23.41c0-4.21-1.99-11.59-10.07-11.59-7.49,0-10.53,6.91-11,11.59h21.07Z"/>
  </g>
  <rect class="cls-5" x="178.38" y="202.5" width="211.62" height="211.62" rx="29.17" ry="29.17"/>
  <g>
    <path class="cls-2" d="m206.18,359.66h-6.6v-4.64h18.82v4.64h-6.67v19.79h-5.55v-19.79Z"/>
    <path class="cls-2" d="m220.18,356.8c0-1.6,1.16-2.79,2.9-2.79s2.9,1.2,2.9,2.79c.04,1.52-1.12,2.76-2.97,2.76-1.74,0-2.83-1.23-2.83-2.76Zm.11,4.93h5.55v17.73h-5.55v-17.73Z"/>
    <path class="cls-2" d="m230.22,367.38c0-2.21-.07-4.06-.14-5.66h4.82l.25,2.47h.11c.73-1.16,2.5-2.86,5.47-2.86,3.63,0,6.34,2.39,6.34,7.61v10.51h-5.51v-9.82c0-2.28-.83-3.84-2.79-3.84-1.52,0-2.43,1.05-2.79,2.07-.15.33-.22.87-.22,1.38v10.22h-5.55v-12.07Z"/>
    <path class="cls-2" d="m255.23,379.64c.22-.25.33-.54.33-.76s-.04-.51-.25-.91l-6.49-16.24h6.13l2.65,8.7c.29,1.05.62,2.36.87,3.3h.14c.22-.94.51-2.28.76-3.3l2.17-8.7h5.91l-4.13,11.67c-2.54,7.03-4.24,9.86-6.24,11.64-1.89,1.67-3.95,2.25-5.33,2.43l-1.16-4.64c.69-.18,1.52-.47,2.39-.98.83-.43,1.78-1.31,2.25-2.21Z"/>
    <path class="cls-2" d="m269.95,355.02h5.55v9.39h9.1v-9.39h5.51v24.43h-5.51v-10.22h-9.1v10.22h-5.55v-24.43Z"/>
    <path class="cls-2" d="m303.04,361.33c5.33,0,9.06,3.55,9.06,9.24,0,6.63-5.08,9.28-9.5,9.28-5.08,0-9.03-3.41-9.03-9.24s4.24-9.28,9.46-9.28Zm-.18,14.57c2.39,0,3.55-2.36,3.55-5.26,0-2.5-.87-5.4-3.55-5.4s-3.59,2.9-3.59,5.37c0,2.83,1.16,5.29,3.59,5.29Z"/>
    <path class="cls-2" d="m315.4,361.73h5.55v9.5c0,2.57.76,4.17,2.76,4.17,1.49,0,2.39-.98,2.76-1.92.11-.33.18-.73.18-1.2v-10.55h5.55v12.07c0,2.28.07,4.17.14,5.66h-4.82l-.25-2.5h-.07c-.8,1.23-2.43,2.9-5.58,2.9-3.52,0-6.2-2.1-6.2-7.72v-10.4Z"/>
    <path class="cls-2" d="m336.57,374.63c1.02.62,3.12,1.34,4.71,1.34s2.39-.54,2.39-1.49-.58-1.34-2.57-2.03c-3.7-1.23-5.08-3.23-5.08-5.33,0-3.34,2.79-5.8,7.21-5.8,2.07,0,3.92.47,5,1.02l-.98,3.81c-.8-.4-2.32-1.02-3.84-1.02-1.34,0-2.1.58-2.1,1.45s.69,1.27,2.86,2.03c3.37,1.16,4.79,2.86,4.82,5.47,0,3.3-2.61,5.76-7.69,5.76-2.32,0-4.42-.54-5.73-1.27l.98-3.95Z"/>
    <path class="cls-2" d="m360.31,361.33c5.73,0,7.94,4.46,7.94,8.85,0,.98-.15,1.78-.22,2.18h-11.42c.18,2.28,2.43,3.37,5,3.37,1.89,0,3.37-.25,4.89-.76l.72,3.77c-1.81.73-4.06,1.12-6.42,1.12-6.02,0-9.46-3.52-9.46-9.06,0-4.5,2.79-9.46,8.95-9.46Zm2.79,7.25c0-1.3-.62-3.59-3.12-3.59-2.32,0-3.26,2.14-3.41,3.59h6.53Z"/>
  </g>
  <path class="cls-6" d="m233.58,274.75l3.7,44.47c0,5.46,4.18,9.88,9.34,9.88h75.22c5.16,0,9.34-4.42,9.34-9.88l3.7-44.47c0-2.98-1.27-5.8-3.46-7.68l-41.31-33.74c-3.43-2.94-8.33-2.94-11.75,0l-41.31,33.74c-2.19,1.88-3.46,4.7-3.46,7.68Z"/>
  <path class="cls-4" d="m269.07,301.57c-3.11-2.02-6.69-3.37-8.68-4.34,1.65,1.12,4.21,2.92,7.17,5.38,3.37,2.8,5.06,4.62,9.53,8.78,1.32,1.23,3.13,2.89,5.33,4.85-.64.97-1.36,1.85-2.13,2.6-1.75,1.72-13.65,9.38-22.65.38-9-9-9.37-30.43-9.37-30.43,0,0,21.81-.27,31.74,6.56,6.4,4.41,6.58,11.98,4.04,17.88-3.14-2.71-5.88-4.9-8-6.55-2.63-2.05-4.42-3.43-6.98-5.1Z"/>
  <path class="cls-4" d="m278.52,282.82c.9-4.24,2.75-8.33,3.59-10.77-.45,2.29-1.07,5.9-1.48,10.38-.47,5.11-.37,8.01-.62,15.15-.07,2.11-.2,4.98-.4,8.43,1.33.27,2.65.4,3.91.39,2.87-.02,19.05-3.53,19.05-18.43,0-14.89-17.42-32.94-17.42-32.94,0,0-18.27,17.82-20.83,31.69-1.65,8.94,4.47,15.35,11.45,18.13.36-4.84.81-8.92,1.2-12.04.48-3.87.82-6.49,1.56-9.99Z"/>
  <path class="cls-4" d="m299.62,301.74c3.11-2.02,6.69-3.37,8.68-4.34-1.65,1.12-4.21,2.92-7.17,5.38-3.37,2.8-5.06,4.62-9.53,8.78-1.32,1.23-3.13,2.89-5.33,4.85.64.97,1.36,1.85,2.13,2.6,1.75,1.72,13.65,9.38,22.65.38,9-9,9.37-30.43,9.37-30.43,0,0-21.81-.27-31.74,6.56-6.4,4.41-6.58,11.98-4.04,17.88,3.14-2.71,5.88-4.9,8-6.55,2.63-2.05,4.42-3.43,6.98-5.1Z"/>
  <text class="cls-3" transform="translate(178.6 643.08)"><tspan x="0" y="0">B</tspan><tspan class="cls-8" x="111.72" y="0">r</tspan><tspan x="179.98" y="0">and</tspan></text>
  <text class="cls-3" transform="translate(185.73 860.3)"><tspan class="cls-7" x="0" y="0">G</tspan><tspan class="cls-9" x="126.71" y="0">uidelines</tspan></text>
  <text class="cls-1" transform="translate(1780.21 72.43)"><tspan x="0" y="0">B</tspan><tspan class="cls-10" x="21.69" y="0">r</tspan><tspan x="34.58" y="0">and</tspan></text>
  <text class="cls-1" transform="translate(1703.16 106)"><tspan x="0" y="0">Guidelines</tspan></text>
</svg>