<?xml version="1.0" encoding="UTF-8"?>
<svg id="Layer_1" data-name="Layer 1" xmlns="http://www.w3.org/2000/svg" viewBox="0 0 1920 1080">
  <defs>
    <style>
      .cls-1 {
        fill: none;
      }

      .cls-2 {
        font-family: SFProDisplay-Bold, 'SF Pro Display';
        font-size: 194.2px;
        font-weight: 700;
      }

      .cls-3, .cls-4 {
        fill: #008eff;
      }

      .cls-5 {
        fill: blue;
      }

      .cls-6, .cls-7, .cls-8 {
        fill: #fff;
      }

      .cls-9 {
        letter-spacing: -.01em;
      }

      .cls-10 {
        letter-spacing: -.01em;
      }

      .cls-7 {
        font-size: 166.09px;
      }

      .cls-7, .cls-8 {
        font-family: SFProDisplay-Medium, 'SF Pro Display';
        font-weight: 500;
      }

      .cls-4 {
        stroke: #fff;
        stroke-miterlimit: 10;
      }

      .cls-11 {
        letter-spacing: 0em;
      }

      .cls-8 {
        font-size: 46.13px;
      }
    </style>
  </defs>
  <rect class="cls-5" width="1920" height="1080"/>
  <text class="cls-7" transform="translate(55.33 533.37)"><tspan x="0" y="0">B</tspan><tspan class="cls-10" x="102.51" y="0">r</tspan><tspan class="cls-11" x="155.23" y="0">and guidelines</tspan></text>
  <g>
    <text class="cls-2" transform="translate(225.93 1000.25)"><tspan class="cls-6" x="0" y="0">Blue </tspan><tspan class="cls-3" x="429.35" y="0">Sea</tspan></text>
    <path class="cls-1" d="m179.05,933.86c0,2.15-.12,4.28-.37,6.38-.77.07-1.57.09-2.38.12-14.56.3-16.43-6.15-32.18-7.59-18.81-1.73-22.71,6.92-40.59,8.08-18.46,1.19-29.32-6.99-38.37-11.68,2.36-29.3,26.92-52.34,56.85-52.34,31.5,0,57.04,25.54,57.04,57.04Z"/>
    <path class="cls-5" d="m171.01,963.06c-4.39,7.34-10.37,13.62-17.5,18.34-7.01-2.55-10.47-6.38-20.7-6.36-10.82.02-12.5,4.3-22.41,3.2-11.68-1.33-12.31-7.64-22.38-8.01-3.62-.12-6.26.58-8.58,1.59-3.79-4.23-6.94-9.02-9.3-14.25,4.98-2.57,9.77-5.28,17.99-5,14.7.54,15.63,9.77,32.71,11.68,14.46,1.61,16.92-4.65,32.71-4.67,7.78,0,12.9,1.5,17.45,3.48Z"/>
    <path class="cls-6" d="m122.01,867.26c-34.11,0-62.25,25.68-66.1,58.77-.33,2.57-.49,5.16-.49,7.83,0,9.74,2.08,18.97,5.86,27.32,2.38,5.33,5.44,10.28,9.11,14.74,12.2,14.98,30.8,24.53,51.62,24.53,17.06,0,32.64-6.43,44.4-16.99,5.26-4.67,9.74-10.16,13.25-16.31,5.05-8.65,8.15-18.51,8.79-29.04.12-1.4.16-2.83.16-4.25,0-36.78-29.82-66.59-66.59-66.59Zm49,95.8c-4.39,7.34-10.37,13.62-17.5,18.34-9.02,6.01-19.86,9.49-31.5,9.49-16.92,0-32.13-7.36-42.57-19.07-3.79-4.23-6.94-9.02-9.3-14.25-3.34-7.22-5.19-15.26-5.19-23.72,0-1.59.07-3.15.21-4.7,2.36-29.3,26.92-52.34,56.85-52.34,31.5,0,57.04,25.54,57.04,57.04,0,2.15-.12,4.28-.37,6.38-.89,8.27-3.6,16.01-7.66,22.83Z"/>
    <path class="cls-4" d="m178.67,940.23c-.89,8.27-3.6,16.01-7.66,22.83-4.56-1.99-9.67-3.48-17.45-3.48-15.8.02-18.25,6.29-32.71,4.67-17.08-1.92-18.02-11.15-32.71-11.68-8.22-.28-13.01,2.43-17.99,5-3.34-7.22-5.19-15.26-5.19-23.72,0-1.59.07-3.15.21-4.7,9.04,4.7,19.91,12.87,38.37,11.68,17.88-1.17,21.78-9.81,40.59-8.08,15.75,1.45,17.62,7.9,32.18,7.59.82-.02,1.61-.05,2.38-.12Z"/>
    <path class="cls-4" d="m153.51,981.41c-9.02,6.01-19.86,9.49-31.5,9.49-16.92,0-32.13-7.36-42.57-19.07,2.31-1,4.95-1.71,8.58-1.59,10.07.37,10.7,6.68,22.38,8.01,9.91,1.1,11.59-3.18,22.41-3.2,10.23-.02,13.69,3.81,20.7,6.36Z"/>
  </g>
  <text class="cls-8" transform="translate(1553.68 58.68)"><tspan x="0" y="0">B</tspan><tspan class="cls-9" x="28.47" y="0">r</tspan><tspan x="43.12" y="0">and guidelines</tspan></text>
</svg>